<svg width="512" height="512" xmlns="http://www.w3.org/2000/svg">

 <g>
  <title>background</title>
  <rect fill="none" id="canvas_background" height="402" width="582" y="-1" x="-1"/>
 </g>
 <g>
  <title>Layer 1</title>
  <path fill="#ffffff" fill-rule="nonzero" stroke-width="38.880001" id="path3766-1" d="m458.73438,91.860407c0,-5.09105 -2.11819,-10.15073 -5.71875,-13.75l-55.00001,-54.99999c-3.59815,-3.5913 -8.63504,-5.6875 -13.71875,-5.6875c-5.08369,0 -10.15184,2.0962 -13.75,5.6875l-114.5625,114.56249l-114.5625,-114.56249c-3.66678,-3.6642 -8.84801,-5.7644 -14.03125,-5.6875c-4.9853,0.078 -9.91076,2.1631 -13.4375,5.6875l-55,54.99999c-3.6006,3.59927 -5.6875,8.65895 -5.6875,13.75c0,5.09105 2.0869,10.15073 5.6875,13.75l183.28125,183.28125c3.59928,3.60056 8.65895,5.6875 13.75,5.6875c5.09105,0 10.15073,-2.08694 13.75,-5.6875l183.28126,-183.28125c3.60056,-3.59927 5.71875,-8.65895 5.71875,-13.75zm0,200c0,-5.09105 -2.11819,-10.15073 -5.71875,-13.75l-55.00001,-55c-3.59815,-3.59127 -8.63504,-5.6875 -13.71875,-5.6875c-5.08369,0 -10.15184,2.09623 -13.75,5.6875l-114.5625,114.5625l-114.5625,-114.5625c-3.66678,-3.66423 -8.84801,-5.76442 -14.03125,-5.6875c-4.9853,0.0784 -9.91076,2.16308 -13.4375,5.6875l-55,55c-3.6006,3.59927 -5.6875,8.65895 -5.6875,13.75c0,5.09105 2.0869,10.15073 5.6875,13.75l183.28125,183.28121c3.59928,3.6006 8.65895,5.6875 13.75,5.6875c5.09105,0 10.15073,-2.0869 13.75,-5.6875l183.28126,-183.28121c3.60056,-3.59927 5.71875,-8.65895 5.71875,-13.75z"/>
 </g>
</svg>